# xmcd
#
# Track frame offsets:
#	150
#	15152
#	37595
#	55484
#
# Disc length: 1048 seconds
#
# Revision: 1
# Processed by: cddbd v1.4PL0 Copyright (c) Steve Scherf et al.
# Submitted via: CDmax 1.8
#
DISCID=1f041604
DTITLE=Whitey Gomez - 415.377.8181
DYEAR=1900
DGENRE=Country
TTITLE0=Lucky
TTITLE1=Stolen
TTITLE2=Once Around Again
TTITLE3=I'll Be All Smiles Tonight
EXTD=
EXTT0=
EXTT1=
EXTT2=
EXTT3=
PLAYORDER=
